<?xml version="1.0" standalone="no"?>
<!DOCTYPE svg PUBLIC "-//W3C//DTD SVG 1.1//EN" "http://www.w3.org/Graphics/SVG/1.1/DTD/svg11.dtd" >
<svg xmlns="http://www.w3.org/2000/svg" xmlns:xlink="http://www.w3.org/1999/xlink" version="1.1">
<metadata></metadata>
<defs>
<font id="pacfontregular" horiz-adv-x="507" >
<font-face units-per-em="2048" ascent="1638" descent="-410" />
<missing-glyph horiz-adv-x="1024" />
<glyph horiz-adv-x="0" />
<glyph unicode="&#xd;" horiz-adv-x="1024" />
<glyph unicode=" "  horiz-adv-x="1024" />
<glyph unicode="&#x09;" horiz-adv-x="1024" />
<glyph unicode="&#xa0;" horiz-adv-x="1024" />
<glyph unicode="!" horiz-adv-x="991" d="M45 344l2 1286h834l4 -1286h-840zM90 102q0 76 107.5 130.5t261.5 54.5t261 -54.5t107 -130.5t-107.5 -130t-260.5 -54q-154 0 -261.5 54.5t-107.5 129.5zM98 1569l6 -1163h719l-6 1163h-719zM193 102q0 -55 77.5 -94t188.5 -39t188.5 39t77.5 94t-77.5 94.5t-188.5 39.5 t-188.5 -39t-77.5 -95zM197 1473q102 4 297 -11v-26h-252q-2 -188 -9 -568q-2 -74 -6 -161h-18zM254 90q0 39 55 68l266 -135q-55 -27 -133 -27t-133 27.5t-55 66.5zM295 90q0 -31 43 -52.5t104 -21.5t105 23l-209 102q-43 -20 -43 -51zM309 158l29 -17zM547 39l28 -16z" />
<glyph unicode="&#x22;" horiz-adv-x="2007" d="M23 211l2 494h479l4 -228h-270l-2 -53l96 -4v-60l-94 -4v-145h-215zM39 223h182v146q33 2 96 4v35h-96q0 27 -4 79l4 5h271v196h-453v-465zM61 575v91q45 2 129 -2v-7l-116 -2q0 -27 -6 -80h-7zM375 758v493h254q151 -7 198 -118q4 -20 4 -41q0 -59 -40 -99 q-61 -59 -162 -59l-2 -174zM387 774h223l2 174q96 -4 168 56q37 41 37 88q0 14 -4 26q-39 106 -184 117h-242v-461zM424 799v6l143 2l2 176q96 -8 179 43q14 12 38 66h5q2 -41 -50 -80q-98 -45 -159 -39l-2 -172l-5 -4q-51 -2 -151 2zM522 459q0 63 25 108q74 133 221 133 q129 0 201 -104q43 -63 43 -141q-1 -47 -19 -86q-25 -68 -89 -112t-136 -44q-143 0 -217 125q-29 53 -29 121zM537 457q0 -90 59 -154q70 -74 168 -74q94 0 162.5 67t68.5 161q0 74 -41 133q-72 98 -211 96q-86 -10 -146 -75.5t-60 -153.5zM588 1085q-4 18 14 29 q31 11 35 -18q0 -23 -21 -29q-25 2 -28 18zM692 758l285 491l258 -489zM719 772l489 2l-231 443zM743 446q-4 16 19 25q18 0 22 -16q-2 -18 -14 -25q-12 -4 -27 16zM774 254v8q143 20 172 125q2 -2 8 -2q-14 -55 -66 -90t-114 -41zM944 932q-4 27 14 33q21 3 31 -17 q4 -20 -12 -30q-20 -10 -33 14zM1042 209v493l232 -260l4 263h178v-496h-414zM1055 223h389v463h-152l-2 -280l-235 258v-441zM1065 795v6l86 4q-18 35 -51 106l6 2l61 -116zM1169 1008q0 57 23 102q70 137 219 137q68 0 126 -35.5t87 -95.5q-63 -37 -190 -115 q110 -46 202 -79q-25 -70 -89 -114t-138 -44q-145 0 -215 131q-25 49 -25 113zM1184 1006q0 -82 47 -138q74 -90 180 -90q35 0 70 13q113 38 129 122q-115 43 -209 86q68 43 203 125q-47 84 -160 107q-160 14 -234 -117q-27 -47 -26 -108zM1278 262v6q41 0 121 2l4 146h4 l2 -154h-131zM1397 1126q0 63 20 64q21 -1 21 -64t-21 -63q-20 0 -20 63zM1421 942v8l142 -55q0 -25 -45 -47l-5 2q14 10 37 39q-43 18 -129 53zM1452 1128q0 63 21 64q20 -1 20 -64t-20 -63t-21 63zM1489 498v209h426v-209h-131l-4 -283h-144l-4 281zM1505 512l144 -2 l2 -281h116v279l2 4h132v178h-396v-178zM1528 600v70h231v-11h-221q-2 -8 -2 -29.5t-2 -29.5h-6zM1661 1012q0 45 45 45t45 -45t-45 -45t-45 45zM1675 1012q0 -33 31 -33q33 0 33 33t-33 32q-31 0 -31 -32zM1681 1008q0 10 7 16l32 -33q-6 -6 -16 -6q-23 0 -23 23z M1688 1008q0 8 4 14l26 -27q-6 -4 -14 -4q-16 0 -16 17zM1688 1024l4 -2zM1718 995l2 -4z" />
<glyph unicode="$" horiz-adv-x="2007" d="M23 211l2 494h479l4 -228h-270l-2 -53l96 -4v-60l-94 -4v-145h-215zM39 223h182v146q33 2 96 4v35h-96q0 27 -4 79l4 5h271v196h-453v-465zM61 575v91q45 2 129 -2v-7l-116 -2q0 -27 -6 -80h-7zM375 758v493h254q151 -7 198 -118q4 -20 4 -41q0 -59 -40 -99 q-61 -59 -162 -59l-2 -174zM387 774h223l2 174q96 -4 168 56q37 41 37 88q0 14 -4 26q-39 106 -184 117h-242v-461zM424 799v6l143 2l2 176q96 -8 179 43q14 12 38 66h5q2 -41 -50 -80q-98 -45 -159 -39l-2 -172l-5 -4q-51 -2 -151 2zM522 459q0 63 25 108q74 133 221 133 q129 0 201 -104q43 -63 43 -141q-1 -47 -19 -86q-25 -68 -89 -112t-136 -44q-143 0 -217 125q-29 53 -29 121zM537 457q0 -90 59 -154q70 -74 168 -74q94 0 162.5 67t68.5 161q0 74 -41 133q-72 98 -211 96q-86 -10 -146 -75.5t-60 -153.5zM588 1085q-4 18 14 29 q31 11 35 -18q0 -23 -21 -29q-25 2 -28 18zM692 758l285 491l258 -489zM719 772l489 2l-231 443zM743 446q-4 16 19 25q18 0 22 -16q-2 -18 -14 -25q-12 -4 -27 16zM774 254v8q143 20 172 125q2 -2 8 -2q-14 -55 -66 -90t-114 -41zM944 932q-4 27 14 33q21 3 31 -17 q4 -20 -12 -30q-20 -10 -33 14zM1042 209v493l232 -260l4 263h178v-496h-414zM1055 223h389v463h-152l-2 -280l-235 258v-441zM1065 795v6l86 4q-18 35 -51 106l6 2l61 -116zM1169 1008q0 57 23 102q70 137 219 137q68 0 126 -35.5t87 -95.5q-63 -37 -190 -115 q110 -46 202 -79q-25 -70 -89 -114t-138 -44q-145 0 -215 131q-25 49 -25 113zM1184 1006q0 -82 47 -138q74 -90 180 -90q35 0 70 13q113 38 129 122q-115 43 -209 86q68 43 203 125q-47 84 -160 107q-160 14 -234 -117q-27 -47 -26 -108zM1278 262v6q41 0 121 2l4 146h4 l2 -154h-131zM1397 1126q0 63 20 64q21 -1 21 -64t-21 -63q-20 0 -20 63zM1421 942v8l142 -55q0 -25 -45 -47l-5 2q14 10 37 39q-43 18 -129 53zM1452 1128q0 63 21 64q20 -1 20 -64t-20 -63t-21 63zM1489 498v209h426v-209h-131l-4 -283h-144l-4 281zM1505 512l144 -2 l2 -281h116v279l2 4h132v178h-396v-178zM1528 600v70h231v-11h-221q-2 -8 -2 -29.5t-2 -29.5h-6zM1661 1012q0 45 45 45t45 -45t-45 -45t-45 45zM1675 1012q0 -33 31 -33q33 0 33 33t-33 32q-31 0 -31 -32zM1681 1008q0 10 7 16l32 -33q-6 -6 -16 -6q-23 0 -23 23z M1688 1008q0 8 4 14l26 -27q-6 -4 -14 -4q-16 0 -16 17zM1688 1024l4 -2zM1718 995l2 -4z" />
<glyph unicode="&#x26;" horiz-adv-x="2007" d="M23 211l2 494h479l4 -228h-270l-2 -53l96 -4v-60l-94 -4v-145h-215zM39 223h182v146q33 2 96 4v35h-96q0 27 -4 79l4 5h271v196h-453v-465zM61 575v91q45 2 129 -2v-7l-116 -2q0 -27 -6 -80h-7zM375 758v493h254q151 -7 198 -118q4 -20 4 -41q0 -59 -40 -99 q-61 -59 -162 -59l-2 -174zM387 774h223l2 174q96 -4 168 56q37 41 37 88q0 14 -4 26q-39 106 -184 117h-242v-461zM424 799v6l143 2l2 176q96 -8 179 43q14 12 38 66h5q2 -41 -50 -80q-98 -45 -159 -39l-2 -172l-5 -4q-51 -2 -151 2zM522 459q0 63 25 108q74 133 221 133 q129 0 201 -104q43 -63 43 -141q-1 -47 -19 -86q-25 -68 -89 -112t-136 -44q-143 0 -217 125q-29 53 -29 121zM537 457q0 -90 59 -154q70 -74 168 -74q94 0 162.5 67t68.5 161q0 74 -41 133q-72 98 -211 96q-86 -10 -146 -75.5t-60 -153.5zM588 1085q-4 18 14 29 q31 11 35 -18q0 -23 -21 -29q-25 2 -28 18zM692 758l285 491l258 -489zM719 772l489 2l-231 443zM743 446q-4 16 19 25q18 0 22 -16q-2 -18 -14 -25q-12 -4 -27 16zM774 254v8q143 20 172 125q2 -2 8 -2q-14 -55 -66 -90t-114 -41zM944 932q-4 27 14 33q21 3 31 -17 q4 -20 -12 -30q-20 -10 -33 14zM1042 209v493l232 -260l4 263h178v-496h-414zM1055 223h389v463h-152l-2 -280l-235 258v-441zM1065 795v6l86 4q-18 35 -51 106l6 2l61 -116zM1169 1008q0 57 23 102q70 137 219 137q68 0 126 -35.5t87 -95.5q-63 -37 -190 -115 q110 -46 202 -79q-25 -70 -89 -114t-138 -44q-145 0 -215 131q-25 49 -25 113zM1184 1006q0 -82 47 -138q74 -90 180 -90q35 0 70 13q113 38 129 122q-115 43 -209 86q68 43 203 125q-47 84 -160 107q-160 14 -234 -117q-27 -47 -26 -108zM1278 262v6q41 0 121 2l4 146h4 l2 -154h-131zM1397 1126q0 63 20 64q21 -1 21 -64t-21 -63q-20 0 -20 63zM1421 942v8l142 -55q0 -25 -45 -47l-5 2q14 10 37 39q-43 18 -129 53zM1452 1128q0 63 21 64q20 -1 20 -64t-20 -63t-21 63zM1489 498v209h426v-209h-131l-4 -283h-144l-4 281zM1505 512l144 -2 l2 -281h116v279l2 4h132v178h-396v-178zM1528 600v70h231v-11h-221q-2 -8 -2 -29.5t-2 -29.5h-6zM1661 1012q0 45 45 45t45 -45t-45 -45t-45 45zM1675 1012q0 -33 31 -33q33 0 33 33t-33 32q-31 0 -31 -32zM1681 1008q0 10 7 16l32 -33q-6 -6 -16 -6q-23 0 -23 23z M1688 1008q0 8 4 14l26 -27q-6 -4 -14 -4q-16 0 -16 17zM1688 1024l4 -2zM1718 995l2 -4z" />
<glyph unicode="'" horiz-adv-x="2007" d="M23 211l2 494h479l4 -228h-270l-2 -53l96 -4v-60l-94 -4v-145h-215zM39 223h182v146q33 2 96 4v35h-96q0 27 -4 79l4 5h271v196h-453v-465zM61 575v91q45 2 129 -2v-7l-116 -2q0 -27 -6 -80h-7zM375 758v493h254q151 -7 198 -118q4 -20 4 -41q0 -59 -40 -99 q-61 -59 -162 -59l-2 -174zM387 774h223l2 174q96 -4 168 56q37 41 37 88q0 14 -4 26q-39 106 -184 117h-242v-461zM424 799v6l143 2l2 176q96 -8 179 43q14 12 38 66h5q2 -41 -50 -80q-98 -45 -159 -39l-2 -172l-5 -4q-51 -2 -151 2zM522 459q0 63 25 108q74 133 221 133 q129 0 201 -104q43 -63 43 -141q-1 -47 -19 -86q-25 -68 -89 -112t-136 -44q-143 0 -217 125q-29 53 -29 121zM537 457q0 -90 59 -154q70 -74 168 -74q94 0 162.5 67t68.5 161q0 74 -41 133q-72 98 -211 96q-86 -10 -146 -75.5t-60 -153.5zM588 1085q-4 18 14 29 q31 11 35 -18q0 -23 -21 -29q-25 2 -28 18zM692 758l285 491l258 -489zM719 772l489 2l-231 443zM743 446q-4 16 19 25q18 0 22 -16q-2 -18 -14 -25q-12 -4 -27 16zM774 254v8q143 20 172 125q2 -2 8 -2q-14 -55 -66 -90t-114 -41zM944 932q-4 27 14 33q21 3 31 -17 q4 -20 -12 -30q-20 -10 -33 14zM1042 209v493l232 -260l4 263h178v-496h-414zM1055 223h389v463h-152l-2 -280l-235 258v-441zM1065 795v6l86 4q-18 35 -51 106l6 2l61 -116zM1169 1008q0 57 23 102q70 137 219 137q68 0 126 -35.5t87 -95.5q-63 -37 -190 -115 q110 -46 202 -79q-25 -70 -89 -114t-138 -44q-145 0 -215 131q-25 49 -25 113zM1184 1006q0 -82 47 -138q74 -90 180 -90q35 0 70 13q113 38 129 122q-115 43 -209 86q68 43 203 125q-47 84 -160 107q-160 14 -234 -117q-27 -47 -26 -108zM1278 262v6q41 0 121 2l4 146h4 l2 -154h-131zM1397 1126q0 63 20 64q21 -1 21 -64t-21 -63q-20 0 -20 63zM1421 942v8l142 -55q0 -25 -45 -47l-5 2q14 10 37 39q-43 18 -129 53zM1452 1128q0 63 21 64q20 -1 20 -64t-20 -63t-21 63zM1489 498v209h426v-209h-131l-4 -283h-144l-4 281zM1505 512l144 -2 l2 -281h116v279l2 4h132v178h-396v-178zM1528 600v70h231v-11h-221q-2 -8 -2 -29.5t-2 -29.5h-6zM1661 1012q0 45 45 45t45 -45t-45 -45t-45 45zM1675 1012q0 -33 31 -33q33 0 33 33t-33 32q-31 0 -31 -32zM1681 1008q0 10 7 16l32 -33q-6 -6 -16 -6q-23 0 -23 23z M1688 1008q0 8 4 14l26 -27q-6 -4 -14 -4q-16 0 -16 17zM1688 1024l4 -2zM1718 995l2 -4z" />
<glyph unicode="(" horiz-adv-x="2007" d="M23 211l2 494h479l4 -228h-270l-2 -53l96 -4v-60l-94 -4v-145h-215zM39 223h182v146q33 2 96 4v35h-96q0 27 -4 79l4 5h271v196h-453v-465zM61 575v91q45 2 129 -2v-7l-116 -2q0 -27 -6 -80h-7zM375 758v493h254q151 -7 198 -118q4 -20 4 -41q0 -59 -40 -99 q-61 -59 -162 -59l-2 -174zM387 774h223l2 174q96 -4 168 56q37 41 37 88q0 14 -4 26q-39 106 -184 117h-242v-461zM424 799v6l143 2l2 176q96 -8 179 43q14 12 38 66h5q2 -41 -50 -80q-98 -45 -159 -39l-2 -172l-5 -4q-51 -2 -151 2zM522 459q0 63 25 108q74 133 221 133 q129 0 201 -104q43 -63 43 -141q-1 -47 -19 -86q-25 -68 -89 -112t-136 -44q-143 0 -217 125q-29 53 -29 121zM537 457q0 -90 59 -154q70 -74 168 -74q94 0 162.5 67t68.5 161q0 74 -41 133q-72 98 -211 96q-86 -10 -146 -75.5t-60 -153.5zM588 1085q-4 18 14 29 q31 11 35 -18q0 -23 -21 -29q-25 2 -28 18zM692 758l285 491l258 -489zM719 772l489 2l-231 443zM743 446q-4 16 19 25q18 0 22 -16q-2 -18 -14 -25q-12 -4 -27 16zM774 254v8q143 20 172 125q2 -2 8 -2q-14 -55 -66 -90t-114 -41zM944 932q-4 27 14 33q21 3 31 -17 q4 -20 -12 -30q-20 -10 -33 14zM1042 209v493l232 -260l4 263h178v-496h-414zM1055 223h389v463h-152l-2 -280l-235 258v-441zM1065 795v6l86 4q-18 35 -51 106l6 2l61 -116zM1169 1008q0 57 23 102q70 137 219 137q68 0 126 -35.5t87 -95.5q-63 -37 -190 -115 q110 -46 202 -79q-25 -70 -89 -114t-138 -44q-145 0 -215 131q-25 49 -25 113zM1184 1006q0 -82 47 -138q74 -90 180 -90q35 0 70 13q113 38 129 122q-115 43 -209 86q68 43 203 125q-47 84 -160 107q-160 14 -234 -117q-27 -47 -26 -108zM1278 262v6q41 0 121 2l4 146h4 l2 -154h-131zM1397 1126q0 63 20 64q21 -1 21 -64t-21 -63q-20 0 -20 63zM1421 942v8l142 -55q0 -25 -45 -47l-5 2q14 10 37 39q-43 18 -129 53zM1452 1128q0 63 21 64q20 -1 20 -64t-20 -63t-21 63zM1489 498v209h426v-209h-131l-4 -283h-144l-4 281zM1505 512l144 -2 l2 -281h116v279l2 4h132v178h-396v-178zM1528 600v70h231v-11h-221q-2 -8 -2 -29.5t-2 -29.5h-6zM1661 1012q0 45 45 45t45 -45t-45 -45t-45 45zM1675 1012q0 -33 31 -33q33 0 33 33t-33 32q-31 0 -31 -32zM1681 1008q0 10 7 16l32 -33q-6 -6 -16 -6q-23 0 -23 23z M1688 1008q0 8 4 14l26 -27q-6 -4 -14 -4q-16 0 -16 17zM1688 1024l4 -2zM1718 995l2 -4z" />
<glyph unicode=")" horiz-adv-x="2007" d="M23 211l2 494h479l4 -228h-270l-2 -53l96 -4v-60l-94 -4v-145h-215zM39 223h182v146q33 2 96 4v35h-96q0 27 -4 79l4 5h271v196h-453v-465zM61 575v91q45 2 129 -2v-7l-116 -2q0 -27 -6 -80h-7zM375 758v493h254q151 -7 198 -118q4 -20 4 -41q0 -59 -40 -99 q-61 -59 -162 -59l-2 -174zM387 774h223l2 174q96 -4 168 56q37 41 37 88q0 14 -4 26q-39 106 -184 117h-242v-461zM424 799v6l143 2l2 176q96 -8 179 43q14 12 38 66h5q2 -41 -50 -80q-98 -45 -159 -39l-2 -172l-5 -4q-51 -2 -151 2zM522 459q0 63 25 108q74 133 221 133 q129 0 201 -104q43 -63 43 -141q-1 -47 -19 -86q-25 -68 -89 -112t-136 -44q-143 0 -217 125q-29 53 -29 121zM537 457q0 -90 59 -154q70 -74 168 -74q94 0 162.5 67t68.5 161q0 74 -41 133q-72 98 -211 96q-86 -10 -146 -75.5t-60 -153.5zM588 1085q-4 18 14 29 q31 11 35 -18q0 -23 -21 -29q-25 2 -28 18zM692 758l285 491l258 -489zM719 772l489 2l-231 443zM743 446q-4 16 19 25q18 0 22 -16q-2 -18 -14 -25q-12 -4 -27 16zM774 254v8q143 20 172 125q2 -2 8 -2q-14 -55 -66 -90t-114 -41zM944 932q-4 27 14 33q21 3 31 -17 q4 -20 -12 -30q-20 -10 -33 14zM1042 209v493l232 -260l4 263h178v-496h-414zM1055 223h389v463h-152l-2 -280l-235 258v-441zM1065 795v6l86 4q-18 35 -51 106l6 2l61 -116zM1169 1008q0 57 23 102q70 137 219 137q68 0 126 -35.5t87 -95.5q-63 -37 -190 -115 q110 -46 202 -79q-25 -70 -89 -114t-138 -44q-145 0 -215 131q-25 49 -25 113zM1184 1006q0 -82 47 -138q74 -90 180 -90q35 0 70 13q113 38 129 122q-115 43 -209 86q68 43 203 125q-47 84 -160 107q-160 14 -234 -117q-27 -47 -26 -108zM1278 262v6q41 0 121 2l4 146h4 l2 -154h-131zM1397 1126q0 63 20 64q21 -1 21 -64t-21 -63q-20 0 -20 63zM1421 942v8l142 -55q0 -25 -45 -47l-5 2q14 10 37 39q-43 18 -129 53zM1452 1128q0 63 21 64q20 -1 20 -64t-20 -63t-21 63zM1489 498v209h426v-209h-131l-4 -283h-144l-4 281zM1505 512l144 -2 l2 -281h116v279l2 4h132v178h-396v-178zM1528 600v70h231v-11h-221q-2 -8 -2 -29.5t-2 -29.5h-6zM1661 1012q0 45 45 45t45 -45t-45 -45t-45 45zM1675 1012q0 -33 31 -33q33 0 33 33t-33 32q-31 0 -31 -32zM1681 1008q0 10 7 16l32 -33q-6 -6 -16 -6q-23 0 -23 23z M1688 1008q0 8 4 14l26 -27q-6 -4 -14 -4q-16 0 -16 17zM1688 1024l4 -2zM1718 995l2 -4z" />
<glyph unicode="*" horiz-adv-x="2007" d="M23 211l2 494h479l4 -228h-270l-2 -53l96 -4v-60l-94 -4v-145h-215zM39 223h182v146q33 2 96 4v35h-96q0 27 -4 79l4 5h271v196h-453v-465zM61 575v91q45 2 129 -2v-7l-116 -2q0 -27 -6 -80h-7zM375 758v493h254q151 -7 198 -118q4 -20 4 -41q0 -59 -40 -99 q-61 -59 -162 -59l-2 -174zM387 774h223l2 174q96 -4 168 56q37 41 37 88q0 14 -4 26q-39 106 -184 117h-242v-461zM424 799v6l143 2l2 176q96 -8 179 43q14 12 38 66h5q2 -41 -50 -80q-98 -45 -159 -39l-2 -172l-5 -4q-51 -2 -151 2zM522 459q0 63 25 108q74 133 221 133 q129 0 201 -104q43 -63 43 -141q-1 -47 -19 -86q-25 -68 -89 -112t-136 -44q-143 0 -217 125q-29 53 -29 121zM537 457q0 -90 59 -154q70 -74 168 -74q94 0 162.5 67t68.5 161q0 74 -41 133q-72 98 -211 96q-86 -10 -146 -75.5t-60 -153.5zM588 1085q-4 18 14 29 q31 11 35 -18q0 -23 -21 -29q-25 2 -28 18zM692 758l285 491l258 -489zM719 772l489 2l-231 443zM743 446q-4 16 19 25q18 0 22 -16q-2 -18 -14 -25q-12 -4 -27 16zM774 254v8q143 20 172 125q2 -2 8 -2q-14 -55 -66 -90t-114 -41zM944 932q-4 27 14 33q21 3 31 -17 q4 -20 -12 -30q-20 -10 -33 14zM1042 209v493l232 -260l4 263h178v-496h-414zM1055 223h389v463h-152l-2 -280l-235 258v-441zM1065 795v6l86 4q-18 35 -51 106l6 2l61 -116zM1169 1008q0 57 23 102q70 137 219 137q68 0 126 -35.5t87 -95.5q-63 -37 -190 -115 q110 -46 202 -79q-25 -70 -89 -114t-138 -44q-145 0 -215 131q-25 49 -25 113zM1184 1006q0 -82 47 -138q74 -90 180 -90q35 0 70 13q113 38 129 122q-115 43 -209 86q68 43 203 125q-47 84 -160 107q-160 14 -234 -117q-27 -47 -26 -108zM1278 262v6q41 0 121 2l4 146h4 l2 -154h-131zM1397 1126q0 63 20 64q21 -1 21 -64t-21 -63q-20 0 -20 63zM1421 942v8l142 -55q0 -25 -45 -47l-5 2q14 10 37 39q-43 18 -129 53zM1452 1128q0 63 21 64q20 -1 20 -64t-20 -63t-21 63zM1489 498v209h426v-209h-131l-4 -283h-144l-4 281zM1505 512l144 -2 l2 -281h116v279l2 4h132v178h-396v-178zM1528 600v70h231v-11h-221q-2 -8 -2 -29.5t-2 -29.5h-6zM1661 1012q0 45 45 45t45 -45t-45 -45t-45 45zM1675 1012q0 -33 31 -33q33 0 33 33t-33 32q-31 0 -31 -32zM1681 1008q0 10 7 16l32 -33q-6 -6 -16 -6q-23 0 -23 23z M1688 1008q0 8 4 14l26 -27q-6 -4 -14 -4q-16 0 -16 17zM1688 1024l4 -2zM1718 995l2 -4z" />
<glyph unicode="," horiz-adv-x="2007" d="M23 211l2 494h479l4 -228h-270l-2 -53l96 -4v-60l-94 -4v-145h-215zM39 223h182v146q33 2 96 4v35h-96q0 27 -4 79l4 5h271v196h-453v-465zM61 575v91q45 2 129 -2v-7l-116 -2q0 -27 -6 -80h-7zM375 758v493h254q151 -7 198 -118q4 -20 4 -41q0 -59 -40 -99 q-61 -59 -162 -59l-2 -174zM387 774h223l2 174q96 -4 168 56q37 41 37 88q0 14 -4 26q-39 106 -184 117h-242v-461zM424 799v6l143 2l2 176q96 -8 179 43q14 12 38 66h5q2 -41 -50 -80q-98 -45 -159 -39l-2 -172l-5 -4q-51 -2 -151 2zM522 459q0 63 25 108q74 133 221 133 q129 0 201 -104q43 -63 43 -141q-1 -47 -19 -86q-25 -68 -89 -112t-136 -44q-143 0 -217 125q-29 53 -29 121zM537 457q0 -90 59 -154q70 -74 168 -74q94 0 162.5 67t68.5 161q0 74 -41 133q-72 98 -211 96q-86 -10 -146 -75.5t-60 -153.5zM588 1085q-4 18 14 29 q31 11 35 -18q0 -23 -21 -29q-25 2 -28 18zM692 758l285 491l258 -489zM719 772l489 2l-231 443zM743 446q-4 16 19 25q18 0 22 -16q-2 -18 -14 -25q-12 -4 -27 16zM774 254v8q143 20 172 125q2 -2 8 -2q-14 -55 -66 -90t-114 -41zM944 932q-4 27 14 33q21 3 31 -17 q4 -20 -12 -30q-20 -10 -33 14zM1042 209v493l232 -260l4 263h178v-496h-414zM1055 223h389v463h-152l-2 -280l-235 258v-441zM1065 795v6l86 4q-18 35 -51 106l6 2l61 -116zM1169 1008q0 57 23 102q70 137 219 137q68 0 126 -35.5t87 -95.5q-63 -37 -190 -115 q110 -46 202 -79q-25 -70 -89 -114t-138 -44q-145 0 -215 131q-25 49 -25 113zM1184 1006q0 -82 47 -138q74 -90 180 -90q35 0 70 13q113 38 129 122q-115 43 -209 86q68 43 203 125q-47 84 -160 107q-160 14 -234 -117q-27 -47 -26 -108zM1278 262v6q41 0 121 2l4 146h4 l2 -154h-131zM1397 1126q0 63 20 64q21 -1 21 -64t-21 -63q-20 0 -20 63zM1421 942v8l142 -55q0 -25 -45 -47l-5 2q14 10 37 39q-43 18 -129 53zM1452 1128q0 63 21 64q20 -1 20 -64t-20 -63t-21 63zM1489 498v209h426v-209h-131l-4 -283h-144l-4 281zM1505 512l144 -2 l2 -281h116v279l2 4h132v178h-396v-178zM1528 600v70h231v-11h-221q-2 -8 -2 -29.5t-2 -29.5h-6zM1661 1012q0 45 45 45t45 -45t-45 -45t-45 45zM1675 1012q0 -33 31 -33q33 0 33 33t-33 32q-31 0 -31 -32zM1681 1008q0 10 7 16l32 -33q-6 -6 -16 -6q-23 0 -23 23z M1688 1008q0 8 4 14l26 -27q-6 -4 -14 -4q-16 0 -16 17zM1688 1024l4 -2zM1718 995l2 -4z" />
<glyph unicode="-" d="M14 641q0 76 53.5 130t131.5 54q76 0 130 -54t54 -130q0 -78 -54.5 -131t-129.5 -53q-78 0 -131.5 53t-53.5 131zM66 641q0 -55 38.5 -94t94.5 -39q53 0 93 39t40 94q0 53 -40 93t-93 40q-55 0 -94 -40t-39 -93zM96 629q0 39 27 65l133 -133q-27 -27 -66 -26 q-41 0 -67.5 26.5t-26.5 67.5zM117 629q0 -31 21.5 -52.5t51.5 -21.5q29 0 52 20l-105 105q-20 -23 -20 -51zM123 694l14 -14zM242 575l14 -14z" />
<glyph unicode="." horiz-adv-x="471" d="M8 184q0 76 54.5 130.5t130.5 54.5t130 -54.5t54 -130.5t-54.5 -130t-129.5 -54q-76 0 -130.5 54.5t-54.5 129.5zM59 184q0 -55 39 -94t95 -39q55 0 94 39t39 94t-39 94t-94 39t-94.5 -38.5t-39.5 -94.5zM90 172q0 39 27 68l135 -136q-29 -27 -68 -26q-39 0 -66.5 27.5 t-27.5 66.5zM111 172q0 -31 21.5 -52.5t51.5 -21.5q31 0 52 23l-103 102q-23 -20 -22 -51zM117 240l16 -17zM236 121l16 -17z" />
<glyph unicode="0" d="M14 641q0 76 53.5 130t131.5 54q76 0 130 -54t54 -130q0 -78 -54.5 -131t-129.5 -53q-78 0 -131.5 53t-53.5 131zM66 641q0 -55 38.5 -94t94.5 -39q53 0 93 39t40 94q0 53 -40 93t-93 40q-55 0 -94 -40t-39 -93zM96 629q0 39 27 65l133 -133q-27 -27 -66 -26 q-41 0 -67.5 26.5t-26.5 67.5zM117 629q0 -31 21.5 -52.5t51.5 -21.5q29 0 52 20l-105 105q-20 -23 -20 -51zM123 694l14 -14zM242 575l14 -14z" />
<glyph unicode="1" horiz-adv-x="1988" d="M31 621q0 244 94 426q133 262 375.5 412.5t529.5 150.5q82 0 164 -13q221 -35 414 -174q201 -145 297 -350q-260 -158 -781 -471q451 -199 832 -332q-100 -287 -367.5 -469t-570.5 -180q-274 0 -512 146.5t-371 396.5q-104 197 -104 457zM94 616q0 -340 191 -565 q145 -172 338.5 -269t404.5 -97q147 0 289 49q186 63 332 190q165 143 200 309q-475 178 -864 357q160 92 420 254q311 197 412 258q-96 176 -279 293q-166 106 -371 145q-55 4 -108 4q-270 0 -492 -119q-233 -127 -362 -360q-111 -199 -111 -449zM973 1116 q0 109 24.5 184.5t59.5 75.5t59.5 -75.5t24.5 -184.5t-24.5 -184.5t-59.5 -75.5t-59.5 75.5t-24.5 184.5zM1073 356v33l584 -225q0 -53 -68 -117q-53 -49 -123 -84l-18 14q43 35 86 72q53 45 72 90q-96 47 -265 111q-203 78 -268 106zM1200 1124q0 109 24.5 184.5t59.5 75.5 t59.5 -75.5t24.5 -184.5t-24.5 -184.5t-59.5 -75.5t-59.5 75.5t-24.5 184.5z" />
<glyph unicode="2" d="M14 641q0 76 53.5 130t131.5 54q76 0 130 -54t54 -130q0 -78 -54.5 -131t-129.5 -53q-78 0 -131.5 53t-53.5 131zM66 641q0 -55 38.5 -94t94.5 -39q53 0 93 39t40 94q0 53 -40 93t-93 40q-55 0 -94 -40t-39 -93zM96 629q0 39 27 65l133 -133q-27 -27 -66 -26 q-41 0 -67.5 26.5t-26.5 67.5zM117 629q0 -31 21.5 -52.5t51.5 -21.5q29 0 52 20l-105 105q-20 -23 -20 -51zM123 694l14 -14zM242 575l14 -14z" />
<glyph unicode="3" d="M14 641q0 76 53.5 130t131.5 54q76 0 130 -54t54 -130q0 -78 -54.5 -131t-129.5 -53q-78 0 -131.5 53t-53.5 131zM66 641q0 -55 38.5 -94t94.5 -39q53 0 93 39t40 94q0 53 -40 93t-93 40q-55 0 -94 -40t-39 -93zM96 629q0 39 27 65l133 -133q-27 -27 -66 -26 q-41 0 -67.5 26.5t-26.5 67.5zM117 629q0 -31 21.5 -52.5t51.5 -21.5q29 0 52 20l-105 105q-20 -23 -20 -51zM123 694l14 -14zM242 575l14 -14z" />
<glyph unicode="4" d="M14 641q0 76 53.5 130t131.5 54q76 0 130 -54t54 -130q0 -78 -54.5 -131t-129.5 -53q-78 0 -131.5 53t-53.5 131zM66 641q0 -55 38.5 -94t94.5 -39q53 0 93 39t40 94q0 53 -40 93t-93 40q-55 0 -94 -40t-39 -93zM96 629q0 39 27 65l133 -133q-27 -27 -66 -26 q-41 0 -67.5 26.5t-26.5 67.5zM117 629q0 -31 21.5 -52.5t51.5 -21.5q29 0 52 20l-105 105q-20 -23 -20 -51zM123 694l14 -14zM242 575l14 -14z" />
<glyph unicode="5" d="M14 641q0 76 53.5 130t131.5 54q76 0 130 -54t54 -130q0 -78 -54.5 -131t-129.5 -53q-78 0 -131.5 53t-53.5 131zM66 641q0 -55 38.5 -94t94.5 -39q53 0 93 39t40 94q0 53 -40 93t-93 40q-55 0 -94 -40t-39 -93zM96 629q0 39 27 65l133 -133q-27 -27 -66 -26 q-41 0 -67.5 26.5t-26.5 67.5zM117 629q0 -31 21.5 -52.5t51.5 -21.5q29 0 52 20l-105 105q-20 -23 -20 -51zM123 694l14 -14zM242 575l14 -14z" />
<glyph unicode="6" d="M14 641q0 76 53.5 130t131.5 54q76 0 130 -54t54 -130q0 -78 -54.5 -131t-129.5 -53q-78 0 -131.5 53t-53.5 131zM66 641q0 -55 38.5 -94t94.5 -39q53 0 93 39t40 94q0 53 -40 93t-93 40q-55 0 -94 -40t-39 -93zM96 629q0 39 27 65l133 -133q-27 -27 -66 -26 q-41 0 -67.5 26.5t-26.5 67.5zM117 629q0 -31 21.5 -52.5t51.5 -21.5q29 0 52 20l-105 105q-20 -23 -20 -51zM123 694l14 -14zM242 575l14 -14z" />
<glyph unicode="7" d="M14 641q0 76 53.5 130t131.5 54q76 0 130 -54t54 -130q0 -78 -54.5 -131t-129.5 -53q-78 0 -131.5 53t-53.5 131zM66 641q0 -55 38.5 -94t94.5 -39q53 0 93 39t40 94q0 53 -40 93t-93 40q-55 0 -94 -40t-39 -93zM96 629q0 39 27 65l133 -133q-27 -27 -66 -26 q-41 0 -67.5 26.5t-26.5 67.5zM117 629q0 -31 21.5 -52.5t51.5 -21.5q29 0 52 20l-105 105q-20 -23 -20 -51zM123 694l14 -14zM242 575l14 -14z" />
<glyph unicode="8" d="M14 641q0 76 53.5 130t131.5 54q76 0 130 -54t54 -130q0 -78 -54.5 -131t-129.5 -53q-78 0 -131.5 53t-53.5 131zM66 641q0 -55 38.5 -94t94.5 -39q53 0 93 39t40 94q0 53 -40 93t-93 40q-55 0 -94 -40t-39 -93zM96 629q0 39 27 65l133 -133q-27 -27 -66 -26 q-41 0 -67.5 26.5t-26.5 67.5zM117 629q0 -31 21.5 -52.5t51.5 -21.5q29 0 52 20l-105 105q-20 -23 -20 -51zM123 694l14 -14zM242 575l14 -14z" />
<glyph unicode="9" horiz-adv-x="1443" d="M25 -348l16 16l219 221l35 -34l-238 -238zM35 -373v1293h47v-1293h-47zM35 870v25q0 301 190.5 514t460.5 213q272 0 462.5 -213t190.5 -514v-25h-49v25q0 283 -177 480.5t-427 197.5q-248 0 -426 -197.5t-178 -480.5v-25h-47zM182 336l97 96q0 2 86 88l22 -22l-182 -185 zM227 -145l33 34l238 -237l-35 -35l-17 18zM299 956q0 102 45 179t117 77t117 -77t45 -179q0 -104 -45 -178q-45 -80 -117 -80t-117 80q-45 74 -45 178zM340 956q0 -94 37 -155.5t84 -61.5t84 61.5t37 155.5q0 92 -37 153.5t-84 61.5t-84 -61t-37 -154zM342 498l23 22 l186 -184l-23 -23l-10 13zM350 915q0 45 18.5 77t47.5 32q27 0 45 -32t18 -77t-18.5 -76.5t-44.5 -31.5q-29 0 -47.5 31.5t-18.5 76.5zM428 -348l133 131l117 115l33 -35l-248 -246zM506 336l12 10l176 176l23 -22l-189 -187zM643 -135l35 33l246 -246l-35 -35l-17 18z M672 500l22 22l180 -180l-22 -23l-10 13zM713 967q0 102 45 179t116 77q72 0 117 -77t45 -179q0 -104 -45 -179q-45 -80 -117 -79q-72 0 -116 79q-45 74 -45 179zM754 967q0 -94 36.5 -155.5t83.5 -61.5t84 61.5t37 155.5q0 92 -36.5 153.5t-84.5 61.5q-47 0 -83.5 -61.5 t-36.5 -153.5zM764 926q0 45 18.5 76.5t46.5 31.5q27 0 45.5 -31.5t18.5 -76.5t-18.5 -77t-45.5 -32q-29 0 -47 32t-18 77zM829 342l13 10l162 168l22 -22l-174 -179zM854 -348l18 16l226 223l35 -32l-244 -242zM981 498l23 22l176 -176l-23 -22l-10 12zM1063 -143l33 34 l254 -239l-33 -35l-19 16zM1290 -373v1293h49v-1293h-49z" />
<glyph unicode=":" horiz-adv-x="497" d="M2 184q0 76 54 130.5t130 54.5t130.5 -54.5t54.5 -130.5t-54.5 -130t-130.5 -54t-130 54.5t-54 129.5zM14 641q0 76 53.5 130t131.5 54q76 0 130 -54t54 -130q0 -78 -54.5 -131t-129.5 -53q-78 0 -131.5 53t-53.5 131zM53 184q0 -55 39 -94t94 -39t94 39t39 94t-39 94 t-94 39t-94 -38.5t-39 -94.5zM66 641q0 -55 38.5 -94t94.5 -39q53 0 93 39t40 94q0 53 -40 93t-93 40q-55 0 -94 -40t-39 -93zM84 172q0 39 27 68l135 -136q-29 -27 -68 -26q-39 0 -66.5 27.5t-27.5 66.5zM96 629q0 39 27 65l133 -133q-27 -27 -66 -26q-41 0 -67.5 26.5 t-26.5 67.5zM104 172q0 -31 21.5 -52.5t52.5 -21.5t51 23l-102 102q-23 -20 -23 -51zM111 240l16 -17zM117 629q0 -31 21.5 -52.5t51.5 -21.5q29 0 52 20l-105 105q-20 -23 -20 -51zM123 694l14 -14zM229 121l17 -17zM242 575l14 -14z" />
<glyph unicode=";" horiz-adv-x="2007" d="M23 211l2 494h479l4 -228h-270l-2 -53l96 -4v-60l-94 -4v-145h-215zM39 223h182v146q33 2 96 4v35h-96q0 27 -4 79l4 5h271v196h-453v-465zM61 575v91q45 2 129 -2v-7l-116 -2q0 -27 -6 -80h-7zM375 758v493h254q151 -7 198 -118q4 -20 4 -41q0 -59 -40 -99 q-61 -59 -162 -59l-2 -174zM387 774h223l2 174q96 -4 168 56q37 41 37 88q0 14 -4 26q-39 106 -184 117h-242v-461zM424 799v6l143 2l2 176q96 -8 179 43q14 12 38 66h5q2 -41 -50 -80q-98 -45 -159 -39l-2 -172l-5 -4q-51 -2 -151 2zM522 459q0 63 25 108q74 133 221 133 q129 0 201 -104q43 -63 43 -141q-1 -47 -19 -86q-25 -68 -89 -112t-136 -44q-143 0 -217 125q-29 53 -29 121zM537 457q0 -90 59 -154q70 -74 168 -74q94 0 162.5 67t68.5 161q0 74 -41 133q-72 98 -211 96q-86 -10 -146 -75.5t-60 -153.5zM588 1085q-4 18 14 29 q31 11 35 -18q0 -23 -21 -29q-25 2 -28 18zM692 758l285 491l258 -489zM719 772l489 2l-231 443zM743 446q-4 16 19 25q18 0 22 -16q-2 -18 -14 -25q-12 -4 -27 16zM774 254v8q143 20 172 125q2 -2 8 -2q-14 -55 -66 -90t-114 -41zM944 932q-4 27 14 33q21 3 31 -17 q4 -20 -12 -30q-20 -10 -33 14zM1042 209v493l232 -260l4 263h178v-496h-414zM1055 223h389v463h-152l-2 -280l-235 258v-441zM1065 795v6l86 4q-18 35 -51 106l6 2l61 -116zM1169 1008q0 57 23 102q70 137 219 137q68 0 126 -35.5t87 -95.5q-63 -37 -190 -115 q110 -46 202 -79q-25 -70 -89 -114t-138 -44q-145 0 -215 131q-25 49 -25 113zM1184 1006q0 -82 47 -138q74 -90 180 -90q35 0 70 13q113 38 129 122q-115 43 -209 86q68 43 203 125q-47 84 -160 107q-160 14 -234 -117q-27 -47 -26 -108zM1278 262v6q41 0 121 2l4 146h4 l2 -154h-131zM1397 1126q0 63 20 64q21 -1 21 -64t-21 -63q-20 0 -20 63zM1421 942v8l142 -55q0 -25 -45 -47l-5 2q14 10 37 39q-43 18 -129 53zM1452 1128q0 63 21 64q20 -1 20 -64t-20 -63t-21 63zM1489 498v209h426v-209h-131l-4 -283h-144l-4 281zM1505 512l144 -2 l2 -281h116v279l2 4h132v178h-396v-178zM1528 600v70h231v-11h-221q-2 -8 -2 -29.5t-2 -29.5h-6zM1661 1012q0 45 45 45t45 -45t-45 -45t-45 45zM1675 1012q0 -33 31 -33q33 0 33 33t-33 32q-31 0 -31 -32zM1681 1008q0 10 7 16l32 -33q-6 -6 -16 -6q-23 0 -23 23z M1688 1008q0 8 4 14l26 -27q-6 -4 -14 -4q-16 0 -16 17zM1688 1024l4 -2zM1718 995l2 -4z" />
<glyph unicode="?" horiz-adv-x="2007" d="M23 211l2 494h479l4 -228h-270l-2 -53l96 -4v-60l-94 -4v-145h-215zM39 223h182v146q33 2 96 4v35h-96q0 27 -4 79l4 5h271v196h-453v-465zM61 575v91q45 2 129 -2v-7l-116 -2q0 -27 -6 -80h-7zM375 758v493h254q151 -7 198 -118q4 -20 4 -41q0 -59 -40 -99 q-61 -59 -162 -59l-2 -174zM387 774h223l2 174q96 -4 168 56q37 41 37 88q0 14 -4 26q-39 106 -184 117h-242v-461zM424 799v6l143 2l2 176q96 -8 179 43q14 12 38 66h5q2 -41 -50 -80q-98 -45 -159 -39l-2 -172l-5 -4q-51 -2 -151 2zM522 459q0 63 25 108q74 133 221 133 q129 0 201 -104q43 -63 43 -141q-1 -47 -19 -86q-25 -68 -89 -112t-136 -44q-143 0 -217 125q-29 53 -29 121zM537 457q0 -90 59 -154q70 -74 168 -74q94 0 162.5 67t68.5 161q0 74 -41 133q-72 98 -211 96q-86 -10 -146 -75.5t-60 -153.5zM588 1085q-4 18 14 29 q31 11 35 -18q0 -23 -21 -29q-25 2 -28 18zM692 758l285 491l258 -489zM719 772l489 2l-231 443zM743 446q-4 16 19 25q18 0 22 -16q-2 -18 -14 -25q-12 -4 -27 16zM774 254v8q143 20 172 125q2 -2 8 -2q-14 -55 -66 -90t-114 -41zM944 932q-4 27 14 33q21 3 31 -17 q4 -20 -12 -30q-20 -10 -33 14zM1042 209v493l232 -260l4 263h178v-496h-414zM1055 223h389v463h-152l-2 -280l-235 258v-441zM1065 795v6l86 4q-18 35 -51 106l6 2l61 -116zM1169 1008q0 57 23 102q70 137 219 137q68 0 126 -35.5t87 -95.5q-63 -37 -190 -115 q110 -46 202 -79q-25 -70 -89 -114t-138 -44q-145 0 -215 131q-25 49 -25 113zM1184 1006q0 -82 47 -138q74 -90 180 -90q35 0 70 13q113 38 129 122q-115 43 -209 86q68 43 203 125q-47 84 -160 107q-160 14 -234 -117q-27 -47 -26 -108zM1278 262v6q41 0 121 2l4 146h4 l2 -154h-131zM1397 1126q0 63 20 64q21 -1 21 -64t-21 -63q-20 0 -20 63zM1421 942v8l142 -55q0 -25 -45 -47l-5 2q14 10 37 39q-43 18 -129 53zM1452 1128q0 63 21 64q20 -1 20 -64t-20 -63t-21 63zM1489 498v209h426v-209h-131l-4 -283h-144l-4 281zM1505 512l144 -2 l2 -281h116v279l2 4h132v178h-396v-178zM1528 600v70h231v-11h-221q-2 -8 -2 -29.5t-2 -29.5h-6zM1661 1012q0 45 45 45t45 -45t-45 -45t-45 45zM1675 1012q0 -33 31 -33q33 0 33 33t-33 32q-31 0 -31 -32zM1681 1008q0 10 7 16l32 -33q-6 -6 -16 -6q-23 0 -23 23z M1688 1008q0 8 4 14l26 -27q-6 -4 -14 -4q-16 0 -16 17zM1688 1024l4 -2zM1718 995l2 -4z" />
<glyph unicode="A" horiz-adv-x="2248" d="M20 -406l1164 2022q221 -395 536 -1002l527 -1013zM127 -344l2013 6l-956 1821zM1053 313q-2 13 -2 26q0 26 8 50q16 45 55 55q12 2 25 2h2q62 0 98 -65q1 -10 1 -21q0 -37 -17 -67q-27 -45 -76 -45q-61 0 -94 65zM1552 -223l351 10q-23 74 -101 215q-82 150 -106 223 l24 15l252 -482l-420 -8v27z" />
<glyph unicode="B" horiz-adv-x="1736" d="M31 -395v2021l1190 -8q117 -23 219 -97.5t157 -183.5q49 -100 50 -217q0 -270 -213 -426q-84 -61 -195 -94q127 -31 234.5 -134t142.5 -230q16 -63 16 -130q0 -264 -235 -425q-154 -76 -344 -76h-1022zM90 -334h1036q113 0 215.5 55.5t159.5 153.5q63 109 64 238 q0 119 -56 211q-139 227 -426 233q0 8 -4 37v37q2 18 11 33q27 -4 53 -5q156 0 340 160q100 152 100 307q0 52 -12 99q-29 113 -123 203t-209 120l-1149 8v-1890zM207 655h24l19 -858h483v-28l-518 -7zM911 971q0 61 66 96q14 6 31 6q39 0 70.5 -23.5t37.5 -62.5 q0 -78 -69 -113q-16 -4 -31 -4q-45 0 -75 29t-30 72zM913 270q0 70 54 97q20 10 41 10q39 0 69.5 -26.5t38.5 -63.5v-11q0 -77 -78 -102q-113 8 -123 70q-2 12 -2 26z" />
<glyph unicode="C" horiz-adv-x="1988" d="M31 621q0 244 94 426q133 262 375.5 412.5t529.5 150.5q82 0 164 -13q221 -35 414 -174q201 -145 297 -350q-260 -158 -781 -471q451 -199 832 -332q-100 -287 -368 -469q-265 -180 -563 -180h-7q-274 0 -512 146.5t-371 396.5q-104 197 -104 457zM94 616 q0 -340 191 -565q145 -172 338.5 -269t404.5 -97q147 0 289 49q186 63 332 190q165 143 200 309q-475 178 -864 357q160 92 420 254q311 197 412 258q-96 176 -279 293q-166 106 -371 145q-55 4 -108 4q-270 0 -492 -119q-233 -127 -362 -360q-111 -199 -111 -449zM1073 356 v33l584 -225q0 -53 -68 -117q-53 -49 -123 -84l-18 14q43 35 86 72q53 45 72 90q-96 47 -265 111q-203 78 -268 106z" />
<glyph unicode="D" horiz-adv-x="2258" d="M29 -406l6 2040q123 -14 280 -14q109 0 334 9t336 9q342 0 559 -73q279 -94 443 -332q209 -236 208 -612q1 -269 -110 -494q-154 -315 -463 -440q-236 -94 -635 -95q-109 0 -332 8.5t-331 8.5q-168 0 -295 -15zM90 -344q106 14 242 14q115 0 350.5 -13t351.5 -13 q547 0 807 264q301 309 301 706q0 136 -39 269q-72 248 -290 437t-472 234l-1251 11v-1909zM1065 348q0 72 65 105q12 2 25 2q61 0 98 -66q4 -14 4 -31q0 -37 -23.5 -66.5t-59.5 -33.5q-86 16 -107 64q-2 14 -2 26zM1174 -223q481 84 667 350q127 182 164 463h37 q-31 -250 -144 -438q-131 -221 -348 -306q-121 -47 -178 -63q-100 -29 -188 -31z" />
<glyph unicode="E" horiz-adv-x="2058" d="M31 -406v2040h1978l8 -938h-1114q-18 -49 -18 -114q0 -66 18 -111h395v-256l-395 -18v-201l1106 -8v-394h-1978zM90 -344h1864v264h-1094q-18 64 -18 170q0 79 10 180h387v138h-393q-14 45 -19 106q-3 26 -3 68q0 21 1 45q2 82 2 112l19 19h1108v807h-1864v-1909z M188 766v711q60 1 131 1q269 0 709 -12v-26l-807 -6l-6 -668h-27z" />
<glyph unicode="F" horiz-adv-x="2019" d="M25 -401l6 2031h1978l10 -938h-1112l-8 -219l401 -18v-244l-387 -18v-594h-888zM94 -346h752v594q76 18 194 18q92 -1 142 -1t57 1v140h-393q-19 58 -19 153v10v168l19 19h1112v805h-1864v-1907zM188 1098v375q37 1 83 1q169 0 444 -12v-24l-484 -8q-7 -45 -7 -139v-24 v-17q0 -99 -11 -152h-25z" />
<glyph unicode="G" horiz-adv-x="2074" d="M27 598q0 537 446 848q231 158 559 158q236 0 412 -91q348 -176 467 -454q-98 -53 -283.5 -168t-277.5 -164q-74 102 -174 102q-18 0 -37 -4q-96 -37 -131 -131q0 -33 2 -67.5t26 -48.5h989q-18 -258 -141 -474q-129 -227 -352 -359t-512 -132q-256 0 -459 106 q-246 131 -390 367t-144 512zM86 614q0 -350 274 -675q301 -264 668 -265q131 0 260 37q264 80 458 308.5t210 498.5h-965q-33 20 -41 68l-12 78q10 76 59.5 139t114.5 80q31 8 64 8q106 0 192 -78q158 90 457 283q-72 102 -86 121q-51 68 -109 104q-268 217 -620 217 q-156 0 -299 -49q-227 -78 -400.5 -281.5t-212.5 -437.5q-12 -78 -12 -156zM1051 -193q246 37 432 158q217 143 278 361l27 -13q-35 -164 -195 -309q-147 -133 -323 -186q-12 -2 -90 -25q-55 -14 -93 -14q-18 0 -36 2v26z" />
<glyph unicode="H" horiz-adv-x="1822" d="M41 -416l8 2040h1663v-2040h-551l-6 613l-580 8l-8 -621h-526zM104 -354h402l10 620h690l19 -18v-602h430v1908h-1551v-1908zM926 1423v43h630q10 -266 11 -538q-1 -275 -11 -537h-26l-6 1020z" />
<glyph unicode="I" horiz-adv-x="989" d="M41 -410l6 2040h834v-2040h-840zM98 -348h719v1917h-719v-1917zM197 1473q21 1 47 1q96 0 250 -12v-26h-252q-10 -176 -11 -537q0 -362 -8 -539h-18z" />
<glyph unicode="J" horiz-adv-x="1599" d="M33 309q0 31 4 62h665l17 1253h772v-1444q-29 -152 -128 -285t-241 -214q-147 -88 -348 -89q-227 0 -394 104.5t-257 266.5t-90 346zM98 311q16 -260 168 -430q203 -229 498 -229q96 0 190 29q174 51 307.5 194t168.5 320l8 1357h-666l-10 -1241h-664zM799 -215 q182 57 262 102q141 80 182 213q68 115 68 330q0 39 -2 113.5t-2 111.5q0 96 10 164h24v-375q-6 -217 -61 -350q-68 -170 -225 -258q-102 -55 -256 -80v29z" />
<glyph unicode="K" horiz-adv-x="2045" d="M20 -401v2021h2016l-1004 -1012l1004 -999zM72 -332h1820l-948 953l948 938h-1810zM170 301h33v-491q27 -14 65 -19q12 -1 30.5 -1t42.5 1t41.5 1t27.5 -1v-35h-232zM776 1425v37h879l-447 -446q-18 6 -18 20q0 23 24 39l345 344z" />
<glyph unicode="L" horiz-adv-x="1593" d="M29 -397l10 2021h782l10 -1370l15 -18h747v-633h-1564zM92 -336h1442v510h-748l-18 19v1361h-676v-1890zM197 -242l8 496h18l8 -451l175 -14v-31h-209z" />
<glyph unicode="M" horiz-adv-x="2222" d="M33 -397v2011l1026 -1012q219 201 526 508q260 262 520 522l9 -2029h-2081zM90 -338h1954v1821l-950 -942h-62q-233 233 -467 469q-279 276 -475 454v-1802zM1384 -152l433 7l18 546h14l11 -571l-476 -8v26z" />
<glyph unicode="N" horiz-adv-x="1835" d="M23 -414v2034l956 -1067l18 1073h729v-2040h-1703zM74 -352h1601v1908h-626l-9 -1153q-197 199 -485 521q-242 268 -481 534v-1810zM997 -168q94 10 244 10h248l16 598h19l8 -635h-535v27z" />
<glyph unicode="O" horiz-adv-x="2103" d="M33 621q0 256 104 446q139 254 380 401.5t523 147.5q252 0 471.5 -115t358.5 -321q176 -258 176 -580q0 -192 -74 -350q-80 -233 -299 -411.5t-463 -215.5q-86 -12 -170 -12q-276 0 -509.5 135t-374.5 379q-123 211 -123 496zM96 612q0 -377 242 -637q285 -303 692 -303 q102 0 207 21q236 49 432 232t270 419q39 127 39 264q0 303 -170 547q-280 395 -827 395h-35q-258 -31 -475 -194q-221 -170 -315 -414q-59 -156 -60 -330zM944 586q0 59 72 86q33 0 61.5 -20.5t34.5 -49.5q-6 -74 -63 -100q-8 -2 -19 -2q-39 0 -84 65q-2 10 -2 21z M1067 -190q246 35 434 157q219 141 281 359q1 -7 26 -7q-55 -231 -284 -385q-201 -133 -457 -161v37z" />
<glyph unicode="P" horiz-adv-x="1953" d="M39 -403v2029q117 -14 268 -14q106 0 324.5 10t324.5 10q350 0 557 -90q265 -114 388 -407q20 -80 20 -162q0 -248 -168 -410q-256 -246 -670 -246l-8 -712zM90 -334h924l6 711q24 -1 48 -1q369 0 642 232q152 172 152 367q-1 53 -13 104q-104 283 -358 396 q-197 86 -539 86q-100 0 -303 -9.5t-301 -9.5q-147 0 -258 14v-1890zM248 -209l590 6l8 723q45 -4 92 -4q346 0 639 186q53 47 94 125q33 70 64 140h18v-6q0 -163 -205 -320q-356 -162 -575 -162q-43 0 -84 4l-8 -710l-19 -19q-59 -1 -135 -1q-189 0 -479 7v31zM915 967 q0 63 62 98q14 6 33 6q39 0 72.5 -23.5t37.5 -62.5q0 -88 -82 -115q-106 8 -120 70q-2 14 -3 27z" />
<glyph unicode="Q" horiz-adv-x="2127" d="M14 623q0 418 299 720q279 283 711 283q211 0 395 -80q254 -111 434 -352q170 -229 170 -563q0 -301 -137 -537q63 -68 176 -211l-309 -264l-158 176q-260 -168 -598 -168q-217 0 -387 80q-217 102 -374 295q-164 201 -205 426q-16 98 -17 195zM76 631q2 -270 139 -498 q145 -240 389 -346q164 -98 387 -98q340 0 613 194l161 -176l209 195l-157 174q0 53 45 141q53 96 61 141q43 123 43 263q0 293 -176 548q-129 186 -342 293q-205 100 -436 101q-244 0 -445 -113q-227 -125 -360 -345q-131 -217 -131 -466v-8zM197 762q35 213 178 393 q150 188 350 252q147 47 248 51v-26q-233 -33 -420 -158q-211 -141 -277 -350q-14 -41 -26 -80q-16 -45 -17 -82h-36zM926 598q0 61 73 86q31 0 61 -19.5t34 -50.5q-6 -74 -62 -98q-10 -2 -18 -2q-41 0 -84 66q-4 8 -4 18z" />
<glyph unicode="R" horiz-adv-x="2017" d="M37 -395v2029q50 -6 195 -6q186 0 528 10q54 1 105 1q401 0 618 -83q348 -133 444 -520q2 -27 2 -55q0 -285 -274 -498q-74 -57 -191 -94q-102 -29 -204 -55l704 -711q-479 -8 -958 -14q-382 -5 -685 -5q-152 0 -284 1zM98 -326h1723l-650 652q-10 14 -10 34q-2 27 19 35 q217 0 419 133q266 171 266 470q0 19 -1 38q-84 313 -344 439q-201 94 -564 94q-100 0 -302.5 -9.5t-299.5 -9.5q-147 0 -256 15v-1891zM924 942q-2 16 -2 30q0 69 55 101q18 8 37 8h2q75 0 100 -69q4 -14 4 -31q0 -45 -28.5 -74.5t-71.5 -29.5q-61 0 -96 65zM1143 166h43 l397 -397h-40q-147 0 -400 12v18q46 6 128 6h44h34q90 0 138 9zM1329 516v45q369 119 395 371h27q-6 -100 -73.5 -195.5t-164.5 -138.5z" />
<glyph unicode="S" horiz-adv-x="1314" d="M37 1071q14 180 140 336t298 203q80 22 161 22h7q285 0 473 -235q84 -102 96 -183l-366 -370q197 -180 278 -295q127 -178 127 -354q0 -74 -20 -150q-43 -147 -154 -268q-119 -129 -260 -164q-86 -20 -172 -21q-205 0 -377 123q-184 133 -207 330l353 352 q-205 205 -271 303q-108 160 -108 325q0 23 2 46zM94 1006q0 -162 142 -330l266 -270l-344 -353q-14 -25 -15 -49q0 -45 39 -102q37 -47 74 -95q167 -151 390 -151h3q127 0 240 53q135 59 219 205q82 137 82 289q0 174 -141 348q-53 68 -283 287q61 82 180 200 q182 180 197 195q-33 57 -66 115q-41 66 -92 104q-147 113 -346 113q-162 0 -289 -80q-117 -74 -186.5 -206t-69.5 -273zM502 1415q20 45 106 51q310 -14 402 -219q-31 -37 -62 -73q-38 -40 -70 -40q-4 0 -8 1q0 25 49.5 65.5t49.5 61.5q0 25 -35 47q-188 127 -324 127 q-57 0 -108 -21zM711 -215q4 8 4 12q127 23 219 129q88 101 113 234q6 16 6 35q0 27 -18.5 72.5t-18.5 64.5q0 20 12 37q55 -72 55 -166q0 -137 -116 -307q-45 -47 -117 -82q-8 -4 -129 -50q-8 2 -10 9v12z" />
<glyph unicode="T" horiz-adv-x="1806" d="M20 778v860h1747v-860h-538l-10 -1163h-598l-11 1155zM82 840l590 -9l10 -1155h479v1145l15 19h538v729h-1632v-729zM176 1196v287h954v-37h-911q-8 -32 -8 -89q0 -17 1 -36t1 -36q0 -57 -8 -89h-29z" />
<glyph unicode="U" horiz-adv-x="1767" d="M23 608q0 129 17 390.5t17 385.5q0 127 -12 228h1618v-1321q-31 -186 -139 -344q-113 -166 -282 -256t-384 -90q-270 0 -465 133q-213 145 -301 387q-69 190 -69 479v8zM92 578q0 -283 72 -465q90 -225 307 -353q164 -96 383 -96q184 0 339 70.5t267 224.5 q104 143 142 315l6 1266h-1502q18 -113 19 -258q0 -115 -16.5 -352.5t-16.5 -351.5zM932 -205q367 98 459 324q90 168 90 430q0 51 -2 108h34q8 -68 9 -133q0 -487 -348 -678q-43 -25 -115 -47q-59 -20 -121 -39q-8 4 -6 17v18z" />
<glyph unicode="V" horiz-adv-x="2224" d="M33 1620h2203l-1161 -2013zM133 1561l948 -1817q130 220 1043 1817h-1991zM307 1446l10 29h486v-37h-434v-35l270 -494l-16 -16q-72 100 -164 270q-76 141 -152 283z" />
<glyph unicode="W" horiz-adv-x="2834" d="M33 1620h2812q-760 -1339 -1155 -2005q-68 100 -152 264q-72 137 -141 275l-322 -547q-453 834 -1042 2013zM137 1561q231 -477 938 -1817q160 293 330 541l285 -541q264 453 528 905q315 541 514 912h-2595zM311 1475q35 1 77 0q158 0 415 -11v-18q-62 -8 -174 -8h-47 h-56q-106 0 -164 -6q37 -92 133.5 -266.5t133.5 -266.5l-25 -6q-193 350 -293 582z" />
<glyph unicode="X" horiz-adv-x="2312" d="M31 -389l557 973q-197 406 -533 1024l13 18q147 1 322 1q703 0 1873 -13l-557 -973l532 -1024zM135 -328l1999 6l-504 963l529 911h-1997l502 -962zM328 1466h415v-32h-340v-43q70 -133 211 -402q-4 -8 -16 -8q-18 2 -20 0zM1550 -209l348 10q-72 168 -217 435l25 14 q88 -158 260 -477l-416 -6v24z" />
<glyph unicode="Y" horiz-adv-x="2238" d="M27 -389q188 367 546 962q-76 174 -264 529q-182 344 -258 524h2198l-8 -43l-1147 -1966zM131 -328l926 6l1085 1874h-1997l508 -968zM319 1466h410v-32h-338v-43q74 -133 207 -402q-4 -8 -14 -8q-16 2 -19 0q-90 166 -246 485z" />
<glyph unicode="Z" horiz-adv-x="2267" d="M33 786v832h2208v-35l-783 -1347l336 -7l12 -626l-1712 -6q4 14 -6 32h-18q109 215 321 574q244 414 330 573zM88 844h709l34 -25q-27 -47 -344 -577q-209 -350 -331 -584h1562v502q-18 1 -50 1t-77 -1q-41 -1 -73 -1t-54 1q-68 4 -118 18q261 459 796 1372h-2054v-706z M330 -248l321 563l25 -6q-35 -98 -131 -258q-115 -188 -148 -256q112 -9 324 -9h43h43q212 0 321 -9v-25h-798zM1372 1427v35h590l-305 -538l-25 8q113 231 269 477l-19 18h-510z" />
<glyph unicode="[" horiz-adv-x="915" />
<glyph unicode="\" horiz-adv-x="915" />
<glyph unicode="]" horiz-adv-x="915" />
<glyph unicode="^" horiz-adv-x="915" />
<glyph unicode="_" horiz-adv-x="915" />
<glyph unicode="`" horiz-adv-x="2007" d="M23 211l2 494h479l4 -228h-270l-2 -53l96 -4v-60l-94 -4v-145h-215zM39 223h182v146q33 2 96 4v35h-96q0 27 -4 79l4 5h271v196h-453v-465zM61 575v91q45 2 129 -2v-7l-116 -2q0 -27 -6 -80h-7zM375 758v493h254q151 -7 198 -118q4 -20 4 -41q0 -59 -40 -99 q-61 -59 -162 -59l-2 -174zM387 774h223l2 174q96 -4 168 56q37 41 37 88q0 14 -4 26q-39 106 -184 117h-242v-461zM424 799v6l143 2l2 176q96 -8 179 43q14 12 38 66h5q2 -41 -50 -80q-98 -45 -159 -39l-2 -172l-5 -4q-51 -2 -151 2zM522 459q0 63 25 108q74 133 221 133 q129 0 201 -104q43 -63 43 -141q-1 -47 -19 -86q-25 -68 -89 -112t-136 -44q-143 0 -217 125q-29 53 -29 121zM537 457q0 -90 59 -154q70 -74 168 -74q94 0 162.5 67t68.5 161q0 74 -41 133q-72 98 -211 96q-86 -10 -146 -75.5t-60 -153.5zM588 1085q-4 18 14 29 q31 11 35 -18q0 -23 -21 -29q-25 2 -28 18zM692 758l285 491l258 -489zM719 772l489 2l-231 443zM743 446q-4 16 19 25q18 0 22 -16q-2 -18 -14 -25q-12 -4 -27 16zM774 254v8q143 20 172 125q2 -2 8 -2q-14 -55 -66 -90t-114 -41zM944 932q-4 27 14 33q21 3 31 -17 q4 -20 -12 -30q-20 -10 -33 14zM1042 209v493l232 -260l4 263h178v-496h-414zM1055 223h389v463h-152l-2 -280l-235 258v-441zM1065 795v6l86 4q-18 35 -51 106l6 2l61 -116zM1169 1008q0 57 23 102q70 137 219 137q68 0 126 -35.5t87 -95.5q-63 -37 -190 -115 q110 -46 202 -79q-25 -70 -89 -114t-138 -44q-145 0 -215 131q-25 49 -25 113zM1184 1006q0 -82 47 -138q74 -90 180 -90q35 0 70 13q113 38 129 122q-115 43 -209 86q68 43 203 125q-47 84 -160 107q-160 14 -234 -117q-27 -47 -26 -108zM1278 262v6q41 0 121 2l4 146h4 l2 -154h-131zM1397 1126q0 63 20 64q21 -1 21 -64t-21 -63q-20 0 -20 63zM1421 942v8l142 -55q0 -25 -45 -47l-5 2q14 10 37 39q-43 18 -129 53zM1452 1128q0 63 21 64q20 -1 20 -64t-20 -63t-21 63zM1489 498v209h426v-209h-131l-4 -283h-144l-4 281zM1505 512l144 -2 l2 -281h116v279l2 4h132v178h-396v-178zM1528 600v70h231v-11h-221q-2 -8 -2 -29.5t-2 -29.5h-6zM1661 1012q0 45 45 45t45 -45t-45 -45t-45 45zM1675 1012q0 -33 31 -33q33 0 33 33t-33 32q-31 0 -31 -32zM1681 1008q0 10 7 16l32 -33q-6 -6 -16 -6q-23 0 -23 23z M1688 1008q0 8 4 14l26 -27q-6 -4 -14 -4q-16 0 -16 17zM1688 1024l4 -2zM1718 995l2 -4z" />
<glyph unicode="a" horiz-adv-x="2217" d="M20 -399l1139 1978q219 -365 535 -983q397 -772 520 -995h-2194zM53 -381q102 1 279 1t428 -1q226 -1 402 -1t302 1q388 5 695 19q-2 6 -496 948q-297 571 -504 940zM129 -336l1030 1780q635 -1166 940 -1780h-1970zM1524 -240v-43q14 0 233 -2h23q129 0 211 21 q-92 174 -281 510l-45 -25q23 -68 107 -223q74 -137 92 -217zM1919 -213l8 -27z" />
<glyph unicode="b" horiz-adv-x="1720" d="M27 -403l10 2023l1216 -18q131 -43 234 -138q114 -106 137 -229q8 -53 8 -107q0 -287 -243 -448q-39 -27 -105 -51q-53 -18 -108 -39q129 -23 246.5 -116t162.5 -216q29 -76 29 -164q0 -162 -80 -284q-102 -156 -350 -205zM45 -377l1176 8q147 63 161 70q90 51 134 127 q73 135 73 283q0 123 -55 202q-109 190 -440 258q-10 12 -11 33q0 23 19 31q14 -1 28 -1q198 0 386 187q90 215 90 307q-1 50 -13 97q-18 106 -114 205q-86 88 -199 137l-1223 14zM90 -344v1892l1176 -18q100 -39 183 -129.5t112 -192.5q2 -33 2 -65q0 -279 -193 -393 q-74 -61 -303 -78q-18 -21 -18 -65q0 -30 8 -70q164 -29 248 -66q127 -59 192 -176q47 -86 47 -193q0 -119 -55 -247q-100 -150 -287 -187zM172 -281l563 13q4 20 -8 51l-483 8l-27 868h-45v-940z" />
<glyph unicode="c" horiz-adv-x="1974" d="M23 627q0 324 165 555q150 213 369 326.5t467 113.5q100 0 201 -18q205 -39 385 -172q188 -139 272 -332l-799 -482q244 -137 850 -358q-100 -276 -359 -451.5t-554 -175.5q-270 2 -496 125q-233 129 -374 369q-127 217 -127 500zM47 625q0 -414 275 -670 q319 -297 702 -297q133 0 264 39q205 63 365 201q180 156 229 344q-27 10 -434 174q-262 102 -418 192q135 88 407.5 255t405.5 255q-51 150 -338 350q-178 125 -446 125q-293 0 -539 -135q-186 -102 -309 -278t-150 -375q-14 -92 -14 -180zM88 635q0 225 92 405 q120 236 350 378q226 141 483 141h7q242 0 442 -107q217 -115 330 -322q-285 -178 -850 -530q178 -94 436 -199q224 -90 447 -178q-35 -180 -226 -325q-162 -123 -362 -174q-109 -27 -219 -27q-211 0 -403.5 96t-338.5 270q-188 227 -188 572zM1057 350l268 -108 q162 -63 258 -115l-149 -154q20 -27 43 -26q20 0 59 32.5t57 38.5q82 88 82 127q0 19 -10 33l-608 236v-64z" />
<glyph unicode="d" horiz-adv-x="2308" d="M31 -389v2015q76 -6 164 -6q121 0 374.5 13.5t380.5 13.5q338 0 561 -72q283 -88 459 -307q231 -287 232 -654q-1 -88 -15 -180q-39 -252 -200 -465q-172 -229 -408 -295q-253 -73 -627 -73h-10q-113 0 -341 8t-341 8q-125 0 -229 -6zM57 -362q88 8 195 8 q125 0 387 -17.5t393 -17.5q567 0 842 276q305 305 305 727q0 125 -29 250q-59 246 -264 449t-452 268l-1377 25v-1968zM90 1573l1327 -31q217 -55 413.5 -233.5t266.5 -393.5q47 -143 47 -292q0 -426 -323 -725q-266 -248 -805 -248q-111 0 -339 12t-339 12 q-131 0 -238 -12zM1157 -217q-4 -20 19 -57q225 14 512 153q336 233 383 735h-56q-49 -279 -135 -421q-207 -350 -723 -410z" />
<glyph unicode="e" horiz-adv-x="2033" d="M29 -406v2040h1970l10 -913h-1118q-43 -47 -43 -133q0 -78 31 -137l395 -19v-205l-383 -18q-14 -31 -19 -74q-3 -19 -3 -50q0 -15 1 -34q2 -61 2 -84q162 -14 371 -16q66 -1 160 -1t217 1q130 1 225 1t154 -1v-357h-1970zM47 -381h1933v295l-1120 8l-6 305q76 20 199 21 q190 -2 202 -2v162l-409 18q-23 84 -23 168q0 92 31 151h1126v852h-1921zM92 -346v1909h1843l11 -779h-1119l-36 -39q1 -5 1 -22q0 -43 -4 -160v-14q0 -103 27 -160l404 -20v-78l-392 -19q-22 -110 -22 -195v-7q0 -121 41 -193h1089l11 -223h-1854zM156 758h45l18 672 l813 14v55l-876 8v-749z" />
<glyph unicode="f" horiz-adv-x="2011" d="M29 -406l12 2032h1958q14 -131 18 -299q1 -55 1 -132t-1 -175q-1 -108 -1 -185t1 -122h-1120q-16 -47 -16 -133q0 -121 -2 -136l395 -18l8 -205l-373 -20l-18 -19v-588h-862zM59 -387h795v600q67 27 181 27h16q95 -1 146 -1t58 1v168h-391q-30 64 -30 157v6q0 80 20 168 h1137v850h-1925zM102 -354v1910h1852v-780h-1118l-35 -37q1 -19 1 -43t-1 -53q-2 -80 -2 -96q0 -104 28 -166l396 -19v-90q-19 -1 -45.5 -1t-59.5 1q-88 2 -108 2q-115 0 -183 -28l-8 -600h-717zM156 1090h53q8 41 8 174v13q0 101 29 153l473 6v57l-555 6z" />
<glyph unicode="g" horiz-adv-x="2074" d="M45 596q0 274 124 503.5t357 375.5q225 141 531 141q238 0 409 -96q358 -201 447 -428l-522 -326q-113 96 -201 96q-25 0 -49 -6q-88 -41 -142 -141q-1 -13 -1 -25q0 -68 28 -119l1004 -10q-8 -233 -123 -442t-318 -344q-233 -158 -563 -158q-256 0 -440 104 q-219 123 -365 326q-154 213 -172 451q-4 49 -4 98zM68 688q-1 -29 -1 -58q0 -241 105 -452q117 -235 343 -385.5t534 -150.5q233 0 417 94q231 121 381 334q156 223 156 465h-985q-35 27 -43 77q-2 10 -2 95q31 109 143 167q37 10 76 11q113 0 199 -82q47 33 251 149 q154 86 234 164q-133 221 -367 346q-225 119 -483 119q-190 0 -367 -70q-248 -96 -413.5 -328.5t-177.5 -494.5zM104 621q0 94 19 190q43 231 233.5 439t419.5 261q123 31 250 31q242 0 449 -104q217 -111 350 -314q-68 -61 -207 -139q-160 -88 -215 -129q-94 66 -217 66 q-45 0 -90 -11q-117 -68 -160 -190q0 -59 2 -119q6 -74 61 -104h967q-23 -221 -166 -420t-352 -303q-184 -92 -408 -92q-322 0 -551 174q-186 139 -285.5 337.5t-99.5 426.5zM1053 -201v-45h114q227 33 418 189q199 159 254 376l-53 19q-61 -225 -289 -373 q-190 -123 -444 -166z" />
<glyph unicode="h" horiz-adv-x="1789" d="M35 -414l8 2042h1636v-2042h-499l-19 617l-614 18l-21 -18l-10 -617h-481zM53 -387h436l13 616l14 19h664l18 -19v-616h467v1976h-1604zM98 -354v1910h1530v-1910h-385l-10 612l-35 27h-715l-18 -19l-8 -620h-359zM893 1430l594 -9l14 -18l10 -1028h54q10 276 10 563 q0 285 -10 563h-672v-71zM993 1466z" />
<glyph unicode="i" horiz-adv-x="937" d="M23 -410l12 2040h794v-2040h-806zM41 -383h762v1987h-750zM86 -350v1917h672l10 -1917h-682zM150 340h45l18 1085q43 17 117 17h8q135 0 135 -2h-2q0 4 2 20q2 12 0 19q-2 10 -10 18l-313 6v-1163z" />
<glyph unicode="j" horiz-adv-x="1583" d="M41 336l672 8q12 252 20 637q12 639 12 641h736l-8 -1509q-59 -186 -222 -334q-166 -154 -352 -178q-63 -8 -125 -9q-410 0 -629 330q-105 157 -105 367q0 23 1 47zM68 309q4 -248 196 -485q217 -215 508 -215q123 0 236 45q154 59 277.5 196.5t168.5 294.5l8 1444h-698 l-25 -1272zM113 281h659l31 1271h614l-6 -1421q-70 -205 -250 -343t-391 -138q-309 0 -524 258q-133 160 -133 373zM782 -227q-2 -23 9 -56q98 23 286 88q166 100 234 283q49 137 53 367q2 191 2 381h-45q-20 -88 -21 -222q0 -35 3 -104v-104q0 -223 -72 -351 q-63 -113 -199 -182q-55 -31 -250 -100z" />
<glyph unicode="k" horiz-adv-x="1998" d="M20 -401l9 2021q164 1 369 1q615 0 1599 -9l-1000 -1000l990 -995q-285 -16 -648 -18q-159 -3 -399 -3q-120 0 -260 1q-469 2 -660 2zM29 -356h1904l-968 981l968 968h-1886zM72 612q0 569 20 944h1751l-936 -931l936 -957h-1769q0 76 -2 944zM137 -274h269q4 23 -7 59 h-110h-8q-64 0 -93 31v493h-51v-583zM748 1432l763 -19q-41 -47 -333 -340q-8 -10 -9 -20q0 -12 19 -43q117 84 260 229l242 254h-932z" />
<glyph unicode="l" horiz-adv-x="1568" d="M35 268q-1 217 -1 387t1 293q4 375 18 672h727q19 -242 19 -654v-42v-159q0 -376 8 -538l29 -26h735l10 -602h-1546q1 96 1 263.5t-1 405.5zM61 -377h1502l-9 551l-774 8l-8 1399h-711v-1958zM98 -338l8 1886h629l13 -1384l24 -27h746l8 -469zM162 -274h239v51 q-15 -1 -30 -1q-80 0 -148 27l-8 449h-37z" />
<glyph unicode="m" horiz-adv-x="2217" d="M41 -395v1976l1026 -1003q219 199 522 501q260 260 518 520v-1994h-2066zM59 -367h2022v1903l-987 -977h-45q-246 244 -490 490q-291 293 -500 460v-1876zM96 549q0 444 8 883l918 -910h98l916 918l12 -1772h-1944q-8 438 -8 881zM1380 -160v-45l523 8l-21 611h-33 l-18 -541q-68 -27 -186 -27q-25 0 -72 2h-70q-74 0 -123 -8z" />
<glyph unicode="n" horiz-adv-x="1832" d="M41 -403v1984l963 -1067q14 213 22 559q10 459 14 563h682v-2039h-1681zM59 -377h1655v1976h-655l-19 -1140q-213 203 -499 524q-242 268 -482 539v-1899zM96 -340v1759q240 -266 477 -532q287 -319 494 -527q18 199 18 535v68v127q0 333 9 477h583l11 -1899zM995 -172 v-45h574l-8 676h-37q-4 -207 -35 -611z" />
<glyph unicode="o" horiz-adv-x="2152" d="M35 639q0 276 121 475q150 246 391 379q236 131 516 131q94 0 190 -16q391 -104 617 -416q174 -236 174 -574q0 -280 -129 -485q-150 -240 -379 -375q-236 -137 -508 -137q-264 0 -496 137q-223 133 -366 367q-131 217 -131 514zM156 205q117 -252 362 -404 q240 -152 518 -155h7q262 0 493 141q223 139 373 383q108 180 108 429v5q0 317 -153 555q-133 203 -359.5 319.5t-474.5 116.5q-258 0 -480 -131t-368 -360q-116 -184 -116 -458q0 -249 90 -441zM104 635q0 170 52 315q84 238 311 410q217 162 471 203h16q582 0 883 -441 q143 -213 143 -512q0 -272 -125 -458q-152 -223 -358 -347q-207 -121 -437 -121q-16 0 -32 1q-248 8 -461 130t-340 337q-123 207 -123 483zM1055 -188q-1 -7 -1 -15q0 -21 7 -49q209 31 352 96q160 74 279 199q135 143 151 297q-6 -4 -10 -4q-10 0 -33 41 q-57 -233 -287 -393q-207 -145 -458 -172z" />
<glyph unicode="p" horiz-adv-x="1943" d="M37 -399v2021q117 -16 270 -16q111 0 336 12t336 12q287 0 473 -67q233 -84 375 -293q84 -123 84 -293q0 -125 -47 -238q-121 -207 -336 -311q-192 -95 -421 -95q-18 0 -36 1l-16 -15l-11 -710zM49 -367h969l18 719h12q432 0 715 283q127 162 127 342q0 53 -10 106 q-106 303 -379 422q-209 90 -577 90q-102 0 -309 -8t-306 -8q-145 0 -254 14zM82 1540q90 -10 199 -10q111 0 339 14.5t338 14.5q268 0 445 -60q221 -76 360 -254q90 -170 90 -276q0 -39 -8 -76q-35 -154 -168 -281q-123 -115 -280 -170q-223 -47 -330 -47q-29 0 -57 2 l-19 -18l-10 -707h-889zM209 -219q2 -4 0 -29q0 -16 8 -16q127 -12 324 -12q324 0 323 0l19 18l18 719h15q300 0 622 153q240 174 240 340q0 21 -4 39q-43 -6 -68 -65q-20 -49 -41 -99q-244 -301 -735 -301q-53 0 -111 4q0 -72 2 -247q1 -53 1 -99q0 -90 -3 -149 q-4 -135 -18 -242z" />
<glyph unicode="q" horiz-adv-x="2160" d="M43 645q10 268 160.5 503.5t390.5 360.5q209 109 453 109q264 0 500.5 -128t375.5 -360q135 -223 135 -524q0 -309 -143 -534l168 -209l-268 -240l-181 168q-266 -174 -608 -174q-223 0 -399 84q-272 131 -434 388q-151 239 -151 515q0 20 1 41zM78 606q0 -74 10 -149 q37 -260 235.5 -489.5t450.5 -293.5q117 -30 244 -30h8q340 0 627 184q20 -31 76.5 -86t76.5 -86q123 90 244 217l-166 180q6 100 66 168q84 162 84 373q0 317 -164 563q-135 203 -363 320q-217 110 -463 110h-4q-250 0 -458 -114q-238 -133 -371 -363.5t-133 -503.5z M106 637v13q0 247 150 472t389 342q186 90 397 90q229 0 438.5 -104t344.5 -293q174 -295 174 -555q0 -96 -25 -190q-6 -55 -73 -187q-51 -102 -51 -173q0 -9 1 -17q29 -25 72 -77t72 -77l-170 -170l-180 170q-265 -196 -602 -196h-3q-205 0 -383 79q-256 115 -403 361 q-143 233 -148 512zM197 745h9q42 0 64 35q12 23 25.5 88.5t28.5 89.5q160 367 692 469v52q-215 -18 -350 -78q-188 -82 -318 -271q-119 -176 -151 -385z" />
<glyph unicode="r" horiz-adv-x="1988" d="M43 -383v2003q94 -10 209 -10q117 0 358.5 14t360.5 14q299 0 491 -69q244 -86 389 -297q84 -123 84 -291q0 -145 -65 -260q-96 -166 -279 -262q-125 -66 -350 -123l688 -701q-891 -28 -1294 -28h-27q-303 0 -565 10zM74 -358h1804l-682 694v37q240 6 430 135 q283 190 283 481q0 37 -4 72q-90 322 -361 448q-207 96 -579 97q-106 0 -320.5 -9.5t-314.5 -9.5q-143 0 -250 15zM106 1548q88 -8 195 -8q109 0 334 13.5t336 13.5q268 0 444 -60q223 -72 365 -247q90 -190 90 -293q0 -43 -10 -84q-37 -152 -177 -277q-123 -111 -280 -162 q-33 -16 -131 -24q-84 -6 -121 -39l8 -64l629 -636h-1671zM1120 174l346 -358q-43 -9 -142 -9h-21q-106 0 -162 -18v-39l493 -6l-430 430h-84zM1333 528q0 -14 4 -32l217 90q106 59 172 160q62 95 62 198v12h-45q-8 -127 -172 -268q-25 -31 -141 -72q-96 -33 -97 -88z M1526 -207h14v-16h-14v16z" />
<glyph unicode="s" horiz-adv-x="1351" d="M55 1040q0 104 43 205q63 145 191 252q137 115 284 123q45 6 89 6q238 0 450 -219q61 -88 64 -94q27 -44 27 -83q0 -8 -1 -16l-366 -366q217 -223 284 -316q139 -190 140 -362q-1 -101 -46 -201q-57 -129 -163 -231q-115 -109 -242 -139q-66 -10 -127 -11 q-369 0 -539 273q-47 74 -53 159l361 361q-395 365 -396 659zM80 1028q0 -164 135 -346q63 -84 268 -291l-340 -352q-12 -31 -12 -59q0 -61 51 -127q47 -55 97 -109q143 -125 378 -125q63 0 134 8q129 18 241 123q107 96 156 225q37 96 37 191q0 176 -138 369 q-70 98 -278 313l379 387q-23 31 -55 100q-152 262 -486 262q-63 0 -125 -12q-135 -23 -249.5 -133.5t-155.5 -243.5q-37 -90 -37 -180zM117 1010q18 324 262 475q119 74 268 74q141 0 265 -67t194 -187l27 -60l-379 -403q141 -154 284 -307q150 -186 150 -359 q0 -154 -94 -301q-99 -155 -240 -194q-98 -29 -201 -29q-190 0 -311 92q-172 129 -172 270l371 377q-137 139 -275 281q-145 172 -149 338zM483 1395q70 39 148 39q147 0 340 -156q-3 -20 -53 -68q-46 -44 -46 -80v-6h54q79 34 116 136q-96 215 -432 235q-119 -37 -127 -100 zM705 -233q0 -14 14 -41q6 -1 12 -1q33 0 74 19q61 29 84 33q224 129 224 441q0 18 -1 38l-51 117q-37 -18 -37 -54q0 -20 18.5 -70t18.5 -75q-10 -170 -225 -352q-14 -20 -72.5 -25.5t-58.5 -29.5z" />
<glyph unicode="t" horiz-adv-x="1812" d="M20 786v852h1749l9 -845q-92 -7 -235 -7h-36h-276q-19 -207 -19 -560v-36v-162q0 -302 -6 -436h-565l-18 1182zM47 819l602 -14l19 -1186h520v1186l18 14h545v783h-1704v-783zM84 856v711h1634v-711h-530l-39 -37v-1155l-449 -10l-14 1184zM137 1190q6 -1 13 -1 q21 0 51 9q8 29 8 98v29v16q0 72 16 107h924v63h-1002z" />
<glyph unicode="u" horiz-adv-x="1769" d="M18 608q0 133 20.5 408.5t20.5 408.5q0 117 -10 213h1616v-1353q-29 -213 -180 -400q-158 -193 -359 -247q-135 -35 -268 -35q-382 0 -612 261q-229 259 -228 736v8zM57 618q0 -473 209 -729q215 -264 576 -264q106 0 213 25q203 27 372 205q160 170 211 378l7 1373 h-1569q14 -111 14 -248q0 -119 -16.5 -368t-16.5 -372zM92 598q0 129 18.5 385t18.5 385q0 106 -8 199h1481l10 -1282q-37 -164 -143.5 -310.5t-250 -226.5t-341.5 -80q-176 0 -335 59.5t-278 215.5q-113 145 -143 315q-29 154 -29 340zM920 -209q-1 -8 -1 -15q0 -38 27 -48 l244 90q184 104 283 295q88 178 88 405q-1 84 -13 170h-55q4 -55 4 -113q0 -262 -102 -469q-63 -129 -205 -210q-96 -53 -270 -105z" />
<glyph unicode="v" horiz-adv-x="2074" d="M33 1606l10 18q182 1 410 1q682 0 1771 -9l-1149 -1999zM70 1597l1005 -1921q80 141 553 961q338 581 539 960h-2097zM141 1561h1966q-221 -410 -1032 -1803zM258 1464q80 -152 160 -301q96 -178 180 -291l37 35q-98 174 -277 531q82 8 215 8q96 -1 151.5 -1t70.5 1v63 h-519zM301 1470h12v-24z" />
<glyph unicode="w" horiz-adv-x="2668" d="M41 1606l2818 -9q-283 -500 -565 -999q-338 -594 -582 -993q-74 102 -158 264q-70 137 -137 274q-72 -98 -176 -270q-135 -223 -168 -274q-475 897 -528 1001q-299 573 -504 1006zM86 1579q195 -416 481 -967q252 -477 506 -954q80 139 162 279q98 166 182 270l295 -549 q119 217 557 956q349 590 535 965h-2718zM150 1542h2594q-190 -365 -506 -903q-504 -860 -526 -899q-100 180 -295 539q-80 -102 -180 -267q-150 -250 -164 -272q-43 84 -471 899q-287 543 -452 903zM266 1489q111 -246 146 -318q86 -178 168 -309q43 -8 55 19 q-29 70 -139 268q-94 168 -123 270l430 6v58z" />
<glyph unicode="x" horiz-adv-x="2291" d="M29 -397l546 966q-80 205 -256 539q-215 406 -272 528q116 -1 299.5 -1t435.5 1q240 1 424 1t312 -1q407 -2 729 -16l-557 -971l526 -1032q-317 -14 -721 -16q-127 -1 -310 -1t-423 1q-504 2 -733 2zM63 -373q102 1 279.5 1t429.5 -1q226 -1 403 -1t304 1q387 4 692 21 l-518 993l549 961h-2102q72 -158 256 -508q176 -334 256 -516zM137 -338l520 916q-80 176 -247 499q-176 336 -246 488h1962q-92 -188 -250 -461q-135 -231 -268 -463l503 -960q-391 -20 -987 -21q-915 2 -987 2zM272 1511l269 -536l53 6q-33 96 -100 227q-57 111 -117 222 q68 20 174 20q166 -2 178 -2v63h-457zM332 1475l12 -7v-26zM1536 -229q2 -6 1 -19.5t-1 -17.5q0 -8 8 -8l459 10q-37 61 -141 264q-86 168 -154 256l-37 -37q82 -145 117 -213q61 -123 88 -217zM1931 -211h8v-8h-8v8z" />
<glyph unicode="y" horiz-adv-x="2113" d="M39 -395l547 956q-78 205 -254 543q-199 377 -266 534h2197q-217 -403 -573 -1009l-592 -1010q-152 -12 -346 -16q-62 -1 -151 -1t-206 1q-163 3 -267 3q-52 0 -89 -1zM84 -369l995 7l1133 1968h-2101q170 -344 520 -1026zM156 -336l520 916q-61 125 -258 495 q-164 307 -244 492h1966q-180 -342 -532 -940q-393 -672 -545 -944q-170 -19 -427 -19h-26q-211 1 -324.5 1t-129.5 -1zM291 1516q33 -113 121 -273q74 -133 147 -266l45 18q-20 72 -104 228q-78 145 -94 229h333v64h-448zM344 1466q0 6 10 13q8 -4 11 -11q0 -4 -2.5 -13 t-2.5 -11q-16 20 -16 22z" />
<glyph unicode="z" horiz-adv-x="2099" d="M33 819v819h2216v-36q-264 -463 -807 -1381q47 -14 110 -18q22 -1 51.5 -1t67.5 1q42 1 71.5 1t47.5 -1q14 -86 18 -197q2 -72 2 -203q-2 -143 -2 -202h-1722v45q88 174 332 577q223 367 325 582zM51 838l752 -7q-82 -152 -350 -604q-223 -373 -338 -608h1642v547 q-12 0 -186 -2q-115 0 -185 20l820 1418h-2155v-764zM86 877v690q121 1 263 1q664 0 1793 -12l-809 -1390q55 -39 164 -39q23 0 113 4q35 2 62 2t46 -2v-477h-1544q127 248 334 592q176 293 350 585l-55 46h-717zM283 -283h864v56l-719 8l-18 18q33 72 139 238 q96 152 131 244q10 12 10 20q0 10 -22 14q-29 6 -33 11zM1372 1448h518l19 -14q-156 -242 -269 -494l52 -12l321 583h-635zM1935 1479z" />
<glyph unicode="{" horiz-adv-x="915" />
<glyph unicode="&#xad;" d="M14 641q0 76 53.5 130t131.5 54q76 0 130 -54t54 -130q0 -78 -54.5 -131t-129.5 -53q-78 0 -131.5 53t-53.5 131zM66 641q0 -55 38.5 -94t94.5 -39q53 0 93 39t40 94q0 53 -40 93t-93 40q-55 0 -94 -40t-39 -93zM96 629q0 39 27 65l133 -133q-27 -27 -66 -26 q-41 0 -67.5 26.5t-26.5 67.5zM117 629q0 -31 21.5 -52.5t51.5 -21.5q29 0 52 20l-105 105q-20 -23 -20 -51zM123 694l14 -14zM242 575l14 -14z" />
<glyph unicode="&#x2000;" horiz-adv-x="823" />
<glyph unicode="&#x2001;" horiz-adv-x="1647" />
<glyph unicode="&#x2002;" horiz-adv-x="823" />
<glyph unicode="&#x2003;" horiz-adv-x="1647" />
<glyph unicode="&#x2004;" horiz-adv-x="549" />
<glyph unicode="&#x2005;" horiz-adv-x="411" />
<glyph unicode="&#x2006;" horiz-adv-x="274" />
<glyph unicode="&#x2007;" horiz-adv-x="274" />
<glyph unicode="&#x2008;" horiz-adv-x="205" />
<glyph unicode="&#x2009;" horiz-adv-x="329" />
<glyph unicode="&#x200a;" horiz-adv-x="91" />
<glyph unicode="&#x2010;" d="M14 641q0 76 53.5 130t131.5 54q76 0 130 -54t54 -130q0 -78 -54.5 -131t-129.5 -53q-78 0 -131.5 53t-53.5 131zM66 641q0 -55 38.5 -94t94.5 -39q53 0 93 39t40 94q0 53 -40 93t-93 40q-55 0 -94 -40t-39 -93zM96 629q0 39 27 65l133 -133q-27 -27 -66 -26 q-41 0 -67.5 26.5t-26.5 67.5zM117 629q0 -31 21.5 -52.5t51.5 -21.5q29 0 52 20l-105 105q-20 -23 -20 -51zM123 694l14 -14zM242 575l14 -14z" />
<glyph unicode="&#x2011;" d="M14 641q0 76 53.5 130t131.5 54q76 0 130 -54t54 -130q0 -78 -54.5 -131t-129.5 -53q-78 0 -131.5 53t-53.5 131zM66 641q0 -55 38.5 -94t94.5 -39q53 0 93 39t40 94q0 53 -40 93t-93 40q-55 0 -94 -40t-39 -93zM96 629q0 39 27 65l133 -133q-27 -27 -66 -26 q-41 0 -67.5 26.5t-26.5 67.5zM117 629q0 -31 21.5 -52.5t51.5 -21.5q29 0 52 20l-105 105q-20 -23 -20 -51zM123 694l14 -14zM242 575l14 -14z" />
<glyph unicode="&#x2012;" d="M14 641q0 76 53.5 130t131.5 54q76 0 130 -54t54 -130q0 -78 -54.5 -131t-129.5 -53q-78 0 -131.5 53t-53.5 131zM66 641q0 -55 38.5 -94t94.5 -39q53 0 93 39t40 94q0 53 -40 93t-93 40q-55 0 -94 -40t-39 -93zM96 629q0 39 27 65l133 -133q-27 -27 -66 -26 q-41 0 -67.5 26.5t-26.5 67.5zM117 629q0 -31 21.5 -52.5t51.5 -21.5q29 0 52 20l-105 105q-20 -23 -20 -51zM123 694l14 -14zM242 575l14 -14z" />
<glyph unicode="&#x2013;" horiz-adv-x="1162" d="M14 641q0 76 148.5 130t364.5 54q211 0 361 -54t150 -130q0 -78 -151 -131t-360 -53q-216 0 -364.5 53t-148.5 131zM158 641q0 -55 107 -94t262 -39q147 0 258 39t111 94q0 53 -111 93t-258 40q-152 0 -260.5 -40t-108.5 -93zM242 629q0 39 74 65l370 -133 q-75 -27 -184 -26q-113 0 -186.5 26.5t-73.5 67.5zM300 629q0 -31 59.5 -52.5t142.5 -21.5q81 0 145 20l-292 105q-55 -23 -55 -51zM316 694l39 -14zM647 575l39 -14z" />
<glyph unicode="&#x2014;" horiz-adv-x="2186" d="M14 641q0 76 297 130t730 54q422 0 721.5 -54t299.5 -130q0 -78 -302.5 -131t-718.5 -53q-433 0 -730 53t-297 131zM303 641q0 -55 213.5 -94t524.5 -39q294 0 516 39t222 94q0 53 -222 93t-516 40q-305 0 -521.5 -40t-216.5 -93zM469 629q0 39 150 65l738 -133 q-150 -27 -366 -26q-228 0 -375 26.5t-147 67.5zM586 629q0 -31 119 -52.5t286 -21.5q161 0 288 20l-582 105q-111 -23 -111 -51zM619 694l78 -14zM1279 575l78 -14z" />
<glyph unicode="&#x202f;" horiz-adv-x="329" />
<glyph unicode="&#x205f;" horiz-adv-x="411" />
<glyph unicode="&#x25fc;" horiz-adv-x="1638" d="M0 0v1638h1638v-1638h-1638z" />
</font>
</defs>
</svg>
